<?xml version="1.0" encoding="UTF-8"?>
<svg id="Layer_1" xmlns="http://www.w3.org/2000/svg" version="1.1" viewBox="0 0 1067.69 144.16">
  <!-- Generator: Adobe Illustrator 29.1.0, SVG Export Plug-In . SVG Version: 2.1.0 Build 142)  -->
  <rect x="855.9" y="1.78" width="210.02" height="138.82" fill="#243e90"/>
  <path d="M1064.13,138.82h-206.45V3.56h206.45v135.26ZM1067.69,0h-213.57v142.38h213.57V0Z" fill="#fff"/>
  <polygon points="964.59 22.63 971.57 22.63 965.94 27.02 968.13 33.99 962.52 29.7 956.91 33.99 959.12 27.02 953.43 22.63 960.41 22.63 962.52 15.84 964.59 22.63" fill="#ffcd05"/>
  <polygon points="964.83 115.63 971.84 115.63 966.21 119.85 968.39 126.54 962.79 122.42 957.18 126.54 959.39 119.85 953.7 115.63 960.67 115.63 962.79 109.1 964.83 115.63" fill="#ffcd05"/>
  <polygon points="987.85 109.46 994.84 109.46 989.21 113.69 991.4 120.38 985.79 116.25 980.18 120.38 982.39 113.69 976.7 109.46 983.68 109.46 985.79 102.93 987.85 109.46" fill="#ffcd05"/>
  <polygon points="987.85 28.84 994.84 28.84 989.21 33.06 991.4 39.76 985.79 35.64 980.18 39.76 982.39 33.06 976.7 28.84 983.68 28.84 985.79 22.3 987.85 28.84" fill="#ffcd05"/>
  <polygon points="1004.92 45.91 1011.91 45.91 1006.27 50.12 1008.47 56.84 1002.85 52.71 997.26 56.84 999.46 50.12 993.77 45.91 1000.74 45.91 1002.85 39.37 1004.92 45.91" fill="#ffcd05"/>
  <polygon points="1004.92 92.62 1011.91 92.62 1006.27 96.86 1008.47 103.56 1002.85 99.42 997.26 103.56 999.46 96.86 993.77 92.62 1000.74 92.62 1002.85 86.08 1004.92 92.62" fill="#ffcd05"/>
  <polygon points="1011.32 68.91 1018.32 68.91 1012.68 73.14 1014.87 79.84 1009.27 75.7 1003.66 79.84 1005.87 73.14 1000.18 68.91 1007.14 68.91 1009.27 62.39 1011.32 68.91" fill="#ffcd05"/>
  <polygon points="941.14 28.89 948.12 28.89 942.49 33.12 944.68 39.83 939.07 35.69 933.46 39.83 935.66 33.12 929.99 28.89 936.96 28.89 939.07 22.35 941.14 28.89" fill="#ffcd05"/>
  <polygon points="924.53 45.97 931.53 45.97 925.89 50.2 928.07 56.9 922.48 52.77 916.87 56.9 919.07 50.2 913.39 45.97 920.37 45.97 922.48 39.44 924.53 45.97" fill="#ffcd05"/>
  <polygon points="918.36 68.97 925.37 68.97 919.72 73.2 921.92 79.9 916.31 75.78 910.69 79.9 912.91 73.2 907.23 68.97 914.19 68.97 916.31 62.44 918.36 68.97" fill="#ffcd05"/>
  <polygon points="924.53 92.68 931.53 92.68 925.89 96.92 928.07 103.61 922.48 99.48 916.87 103.61 919.07 96.92 913.39 92.68 920.37 92.68 922.48 86.16 924.53 92.68" fill="#ffcd05"/>
  <polygon points="941.38 109.52 948.36 109.52 942.73 113.75 944.91 120.45 939.31 116.31 933.7 120.45 935.91 113.75 930.23 109.52 937.2 109.52 939.31 102.98 941.38 109.52" fill="#ffcd05"/>
  <path d="M37.65,114.3c4.54,4.4,11.07,6.59,19.57,6.59,6.1,0,11.35-1.52,15.75-4.57,4.39-3.05,7.08-6.28,8.08-9.68h26.59c-4.25,13.18-10.77,22.62-19.56,28.28-8.8,5.68-19.43,8.51-31.91,8.51-8.65,0-16.46-1.38-23.4-4.15-6.95-2.76-12.83-6.7-17.66-11.81-4.81-5.11-8.54-11.2-11.16-18.29-2.62-7.09-3.93-14.9-3.93-23.39s1.34-15.88,4.04-22.98c2.69-7.09,6.52-13.22,11.48-18.4,4.97-5.17,10.89-9.25,17.76-12.23,6.88-2.97,14.51-4.47,22.88-4.47,9.36,0,17.51,1.81,24.46,5.43,6.95,3.62,12.66,8.48,17.13,14.57,4.46,6.1,7.69,13.05,9.68,20.85,1.97,7.81,2.68,15.96,2.12,24.46H30.2c.43,9.79,2.9,16.88,7.44,21.28M71.79,56.44c-3.62-3.97-9.12-5.95-16.49-5.95-4.82,0-8.83.82-12.02,2.44-3.19,1.64-5.74,3.66-7.66,6.07-1.91,2.41-3.26,4.97-4.04,7.66-.78,2.7-1.24,5.11-1.38,7.23h49.14c-1.42-7.66-3.94-13.47-7.56-17.45M824.08,29.47v24.57h-19.65v51.69c0,5.1.19,8.49,1.9,10.13,1.72,1.66,4.81,2.59,9.91,2.59,1.69,0,2.54-.14,4.16-.25,1.52-.18,3.67-.35,3.67-.67v23.31c0,.45-4.75.66-7.86.74-3.11.21-5.86.25-8.8.25-4.67,0-8.9-.3-13.09-.95-4.15-.62-7.72-1.9-10.9-3.71-3.16-1.83-4.81-4.44-6.64-7.81-1.78-3.33-1.83-7.76-1.83-13.26v-62.06h-19.66v-24.57h19.66V0h29.47v29.47h19.65ZM707.04,90.01c-1.95.64-3.7,1.18-5.82,1.57-2.17.45-4.32.77-6.7,1.04-2.38.32-4.73.64-7.09,1.11-2.28.33-4.43.93-6.54,1.65-2.26.69-4.11,1.64-5.73,2.84-1.64,1.22-2.85,2.7-3.89,4.54-.97,1.83-1.45,4.13-1.45,6.97s.49,4.94,1.46,6.79c1.03,1.79,2.31,3.25,3.99,4.29,1.72,1.11,3.71,1.78,5.9,2.27,2.32.41,4.59.57,6.95.57,5.9,0,10.46-.91,13.72-2.91,3.24-1.95,5.58-4.33,7.18-7.07,1.48-2.75,1.85-5.56,2.2-8.33.35-2.84-.13-5.06-.13-6.76v-11.2c0,1.12-2.21,1.97-4.05,2.62M648.52,46.99c3.14-4.65,7.06-8.07,11.83-10.85,4.77-2.84,10.13-4.66,16.13-5.83,5.96-1.2,11.98-1.67,18.02-1.67,5.46,0,11.07.38,16.7,1.16,5.56.78,10.74,2.26,15.41,4.53,4.63,2.29,7.46,5.45,10.47,9.39,2.91,4,3.49,9.41,3.49,15.94v56.83c0,4.88,1.19,9.64,1.78,14.12.53,4.5,2,7.85,3.41,10.12l-30.2.11c-.53-1.72-.91-3.45-1.22-5.23-.37-1.75-.58-3.56-.73-5.43-4.77,4.92-10.36,8.4-16.83,10.35-6.47,1.92-13.06,2.97-19.8,2.97-5.22,0-10.07-.67-14.62-1.93-4.47-1.23-8.45-3.24-11.85-5.92-3.39-2.65-5.96-6.02-7.91-10.09-1.83-4.09-2.81-8.98-2.81-14.57,0-6.16,1.07-11.24,3.28-15.26,2.19-4.02,4.97-7.22,8.43-9.63,3.44-2.36,7.36-4.19,11.82-5.34,4.43-1.19,8.83-2.16,13.41-2.88,4.47-.69,8.93-1.22,13.29-1.69,4.33-.38,8.23-1.05,11.67-1.88,3.3-.84,5.99-2.06,7.92-3.7,2-1.61,2.85-3.95,2.75-7.02,0-3.26-.51-5.86-1.59-7.75-1.04-1.82-2.4-3.31-4.19-4.39-1.77-1.03-3.76-1.76-6.11-2.11-2.27-.38-4.77-.53-7.43-.53-5.87,0-10.51.59-13.9,3.16-3.33,2.54-5.29,7-5.86,11.92h-30.04c.43-4.92,2.15-12.23,5.27-16.88M627.57,29.47v24.57h-24.56v51.69c0,5.1,1.69,8.49,3.37,10.13,1.67,1.66,5.5,2.59,10.53,2.59,1.69,0,4.03-.14,5.53-.25,1.58-.18,5.13-.35,5.13-.67v23.31c-4.91.45-5.81.66-8.92.74-3.09.21-6.32.25-9.32.25-4.61,0-9.18-.3-13.29-.95-4.19-.62-7.91-1.9-11.1-3.71-3.16-1.83-6.28-4.44-8.06-7.81-1.88-3.33-3.35-7.76-3.35-13.26v-62.06h-14.75v-24.57h14.75V0h29.47v29.47h24.56ZM478.01,112.63c1.35,2.32,3.05,4.72,5.2,6.22,2.07,1.46,4.47,2.86,7.27,3.49,2.75.78,5.54,1.19,8.48,1.19,2.14,0,4.35-.18,6.64-.64,2.35-.45,4.45-1.27,6.31-2.31,1.92-1.03,3.51-2.43,4.75-4.19,1.27-1.79,1.94-3.97,1.94-6.67,0-4.48-2.98-7.87-8.99-10.15-5.98-2.27-14.3-4.48-25.01-6.66-4.35-1.06-8.66-2.26-12.78-3.56-4.12-1.28-7.81-3.05-11.09-5.2-3.25-2.27-5.81-4.97-7.79-8.28-2-3.35-2.97-7.4-2.97-12.22,0-6.98,1.35-12.78,4.13-17.26,2.73-4.49,6.37-8.05,10.84-10.64,4.5-2.59,9.6-4.47,15.28-5.54,5.56-1.03,11.36-1.51,17.27-1.51s11.62.54,17.18,1.66c5.63,1.12,10.55,2.99,14.96,5.72,4.32,2.6,7.92,6.39,10.87,10.8,2.87,4.48,4.55,12.07,5.13,16.98h-28.48c-.51-4.92-2.63-9.83-6.57-11.84-3.93-2.02-8.61-3.13-13.92-3.13-1.67,0-3.54.03-5.5.3-1.95.17-3.76.57-5.38,1.31-1.58.68-3.01,1.76-4.12,3-1.13,1.32-1.72,3.15-1.72,5.44,0,2.64,1.04,4.81,3.05,6.46,1.91,1.74,4.56,3.08,7.65,4.16,3.21,1.03,6.8,2.03,10.92,2.87,4,.81,8.22,1.73,12.46,2.7,4.38,1.01,8.58,2.14,12.74,3.59,4.13,1.41,7.83,3.28,11.07,5.6,3.27,2.35,5.89,5.2,7.81,8.63,1.95,3.47,2.94,7.71,2.94,12.78,0,7.16-1.43,13.16-4.27,18.03-2.92,4.79-6.65,8.7-11.32,11.72-4.68,2.97-9.96,4.98-15.93,6.22-5.97,1.24-12.12,1.81-18.29,1.81s-12.51-.67-18.51-1.93c-6.08-1.23-11.47-3.41-16.23-6.32-4.64-3.01-8.56-7.88-11.58-12.73-3.02-4.88-4.63-9.54-4.94-19.36h28.52c0,4.91.65,7.08,2,9.46M328.98,62.53c2.62-7.1,6.46-13.1,11.35-18.16,4.89-4.93,10.86-8.87,17.71-11.61,6.93-2.69,14.65-4.05,23.24-4.05s16.32,1.36,23.32,4.05c6.92,2.74,12.85,6.68,17.79,11.61,4.93,5.07,8.68,11.07,11.38,18.16,2.7,7.14,4.02,15.04,4.02,23.88s-1.32,16.57-4.02,23.58c-2.7,7.1-6.45,13.08-11.38,18.13-4.94,4.97-10.86,8.87-17.79,11.48-7,2.7-14.8,4.04-23.32,4.04s-16.31-1.35-23.24-4.04c-6.85-2.61-12.82-6.51-17.71-11.48-4.89-5.05-8.73-11.03-11.35-18.13-2.69-7.01-4.03-14.91-4.03-23.58s1.34-16.74,4.03-23.88M356.25,99.11c.82,4.12,2.27,7.9,4.26,11.21,2.03,3.34,4.75,5.96,8.15,7.93,3.31,1.95,7.51,2.97,12.63,2.97s9.25-1.02,12.7-2.97c3.44-1.97,6.13-4.59,8.17-7.93,2.05-3.31,3.51-7.08,4.36-11.21.84-4.18,1.21-8.46,1.21-12.76s-.36-8.7-1.21-12.93c-.85-4.17-2.31-7.91-4.36-11.16-2.03-3.21-4.73-5.91-8.17-7.94-3.46-2.04-7.67-3.05-12.7-3.05s-9.32,1.01-12.63,3.05c-3.4,2.03-6.12,4.73-8.15,7.94-1.98,3.25-3.43,6.99-4.26,11.16-.86,4.23-1.27,8.56-1.27,12.93s.4,8.58,1.27,12.76M283.7,29.47v24.57h-.88c1.37-4.92,3.28-7.54,5.7-10.45,2.37-2.88,5.15-5.86,8.21-7.93,3.16-2.04,6.45-3.89,9.99-5.02,3.49-1.11,6.64-1.8,10.32-1.8,1.98,0,5.96.14,5.96.88v27.9c0-.28-2.52-.52-4.44-.81-1.96-.16-3.55-.26-5.4-.26-5.49,0-9.95.89-13.86,2.77-3.75,1.8-6.75,4.34-9.04,7.48-2.28,3.14-4.03,6.86-5.02,11.08-1.02,4.21-1.54,8.8-1.54,13.73v50.86h-29.47V29.47h29.47ZM200.18,142.47v-14.74h.09c-3.82,4.91-8.74,9.89-14.8,12.73-6.05,2.81-12.24,3.7-18.56,3.7-8,0-14.56-1.29-19.72-3.44-5.16-2.06-9.2-5.24-12.15-9.09-2.98-3.89-5.34-8.68-6.51-14.21-1.15-5.65-2.05-11.82-2.05-18.57V29.47h29.48v63.91c0,8.97,1.93,15.78,4.75,20.15,2.84,4.46,8.07,6.66,15.27,6.66,8.12,0,14.53-2.41,18.18-7.28,3.73-4.92,6.01-12.88,6.01-23.97V29.47h29.47v112.99h-29.47Z" fill="#fff"/>
</svg>